<mxfile host="app.diagrams.net" modified="2022-09-29T00:26:00.697Z" agent="5.0 (Windows NT 10.0; Win64; x64) AppleWebKit/537.36 (KHTML, like Gecko) Chrome/105.0.0.0 Safari/537.36" etag="hu5u5Vr1koQNHfpYuEw2" version="20.3.6" type="github">
  <diagram id="8eygJcUhAP4R4MEj_PFW" name="第 1 页">
    <mxGraphModel dx="2048" dy="1850" grid="1" gridSize="10" guides="1" tooltips="1" connect="1" arrows="1" fold="1" page="1" pageScale="1" pageWidth="827" pageHeight="1169" math="0" shadow="0">
      <root>
        <mxCell id="0" />
        <mxCell id="1" parent="0" />
        <mxCell id="LWDec0ok-VuoAz_Tq3SS-132" value="&lt;font style=&quot;font-size: 16px;&quot;&gt;应用安全&lt;br&gt;&lt;br&gt;&lt;br&gt;&lt;br&gt;&lt;br&gt;&lt;br&gt;&lt;br&gt;&lt;/font&gt;" style="rounded=0;whiteSpace=wrap;html=1;" vertex="1" parent="1">
          <mxGeometry x="2040" y="356" width="645" height="147" as="geometry" />
        </mxCell>
        <mxCell id="LWDec0ok-VuoAz_Tq3SS-42" value="&lt;font style=&quot;font-size: 16px;&quot;&gt;数据生命周期安全&lt;br&gt;&lt;br&gt;&lt;br&gt;&lt;br&gt;&lt;br&gt;&lt;br&gt;&lt;br&gt;&lt;br&gt;&lt;/font&gt;" style="rounded=0;whiteSpace=wrap;html=1;" vertex="1" parent="1">
          <mxGeometry x="2040" y="164" width="645" height="180" as="geometry" />
        </mxCell>
        <mxCell id="_QIip4Y_jchZYiL5Eddr-1" value="&lt;span style=&quot;font-size: 18px;&quot;&gt;用户数据&lt;br&gt;&lt;/span&gt;" style="rounded=0;whiteSpace=wrap;html=1;" parent="1" vertex="1">
          <mxGeometry x="80" y="110" width="130" height="40" as="geometry" />
        </mxCell>
        <mxCell id="_QIip4Y_jchZYiL5Eddr-2" value="&lt;font style=&quot;font-size: 18px;&quot;&gt;业务数据&lt;/font&gt;" style="rounded=0;whiteSpace=wrap;html=1;" parent="1" vertex="1">
          <mxGeometry x="80" y="210" width="130" height="40" as="geometry" />
        </mxCell>
        <mxCell id="_QIip4Y_jchZYiL5Eddr-3" value="&lt;font style=&quot;font-size: 18px;&quot;&gt;经营管理数据&lt;/font&gt;" style="rounded=0;whiteSpace=wrap;html=1;" parent="1" vertex="1">
          <mxGeometry x="80" y="330" width="130" height="40" as="geometry" />
        </mxCell>
        <mxCell id="iFcWx9lhSXFR9I_ciD_3-1" value="&lt;font style=&quot;font-size: 16px;&quot;&gt;自然人身份标识&lt;br&gt;&lt;/font&gt;" style="rounded=0;whiteSpace=wrap;html=1;" parent="1" vertex="1">
          <mxGeometry x="648" y="-193" width="143" height="30" as="geometry" />
        </mxCell>
        <mxCell id="iFcWx9lhSXFR9I_ciD_3-3" value="&lt;font style=&quot;font-size: 16px;&quot;&gt;网络身份标识&lt;br&gt;&lt;/font&gt;" style="rounded=0;whiteSpace=wrap;html=1;" parent="1" vertex="1">
          <mxGeometry x="648" y="-120" width="143" height="30" as="geometry" />
        </mxCell>
        <mxCell id="iFcWx9lhSXFR9I_ciD_3-4" value="&lt;font style=&quot;font-size: 16px;&quot;&gt;基本资料&lt;br&gt;&lt;/font&gt;" style="rounded=0;whiteSpace=wrap;html=1;" parent="1" vertex="1">
          <mxGeometry x="648" y="-156" width="143" height="30" as="geometry" />
        </mxCell>
        <mxCell id="iFcWx9lhSXFR9I_ciD_3-5" value="&lt;font style=&quot;font-size: 16px;&quot;&gt;设备信息&lt;br&gt;&lt;/font&gt;" style="rounded=0;whiteSpace=wrap;html=1;" parent="1" vertex="1">
          <mxGeometry x="648" y="-83" width="143" height="30" as="geometry" />
        </mxCell>
        <mxCell id="iFcWx9lhSXFR9I_ciD_3-6" value="&lt;font style=&quot;font-size: 16px;&quot;&gt;签约信息&lt;br&gt;&lt;/font&gt;" style="rounded=0;whiteSpace=wrap;html=1;" parent="1" vertex="1">
          <mxGeometry x="648" y="-40" width="143" height="30" as="geometry" />
        </mxCell>
        <mxCell id="iFcWx9lhSXFR9I_ciD_3-7" value="&lt;font style=&quot;font-size: 16px;&quot;&gt;UP主基础信息&lt;br&gt;&lt;/font&gt;" style="rounded=0;whiteSpace=wrap;html=1;" parent="1" vertex="1">
          <mxGeometry x="648" y="40" width="143" height="30" as="geometry" />
        </mxCell>
        <mxCell id="iFcWx9lhSXFR9I_ciD_3-8" value="&lt;font style=&quot;font-size: 16px;&quot;&gt;直播间基础信息&lt;br&gt;&lt;/font&gt;" style="rounded=0;whiteSpace=wrap;html=1;" parent="1" vertex="1">
          <mxGeometry x="648" width="143" height="30" as="geometry" />
        </mxCell>
        <mxCell id="iFcWx9lhSXFR9I_ciD_3-9" value="&lt;font style=&quot;font-size: 16px;&quot;&gt;……&lt;br&gt;&lt;/font&gt;" style="rounded=0;whiteSpace=wrap;html=1;" parent="1" vertex="1">
          <mxGeometry x="1098" y="10" width="143" height="30" as="geometry" />
        </mxCell>
        <mxCell id="iFcWx9lhSXFR9I_ciD_3-10" value="&lt;font style=&quot;font-size: 16px;&quot;&gt;基本资料&lt;br&gt;&lt;/font&gt;" style="rounded=0;whiteSpace=wrap;html=1;" parent="1" vertex="1">
          <mxGeometry x="648" y="70" width="143" height="30" as="geometry" />
        </mxCell>
        <mxCell id="iFcWx9lhSXFR9I_ciD_3-11" value="&lt;font style=&quot;font-size: 16px;&quot;&gt;……&lt;br&gt;&lt;/font&gt;" style="rounded=0;whiteSpace=wrap;html=1;" parent="1" vertex="1">
          <mxGeometry x="948" y="70" width="143" height="30" as="geometry" />
        </mxCell>
        <mxCell id="iFcWx9lhSXFR9I_ciD_3-12" value="&lt;font style=&quot;font-size: 16px;&quot;&gt;身份标识&lt;br&gt;&lt;/font&gt;" style="rounded=0;whiteSpace=wrap;html=1;" parent="1" vertex="1">
          <mxGeometry x="798" y="70" width="143" height="30" as="geometry" />
        </mxCell>
        <mxCell id="iFcWx9lhSXFR9I_ciD_3-13" value="&lt;font style=&quot;font-size: 16px;&quot;&gt;……&lt;br&gt;&lt;/font&gt;" style="rounded=0;whiteSpace=wrap;html=1;" parent="1" vertex="1">
          <mxGeometry x="1098" y="70" width="143" height="30" as="geometry" />
        </mxCell>
        <mxCell id="iFcWx9lhSXFR9I_ciD_3-14" value="&lt;font style=&quot;font-size: 16px;&quot;&gt;基本资料&lt;br&gt;&lt;/font&gt;" style="rounded=0;whiteSpace=wrap;html=1;" parent="1" vertex="1">
          <mxGeometry x="648" y="115" width="143" height="30" as="geometry" />
        </mxCell>
        <mxCell id="iFcWx9lhSXFR9I_ciD_3-15" value="&lt;font style=&quot;font-size: 16px;&quot;&gt;……&lt;br&gt;&lt;/font&gt;" style="rounded=0;whiteSpace=wrap;html=1;" parent="1" vertex="1">
          <mxGeometry x="948" y="115" width="143" height="30" as="geometry" />
        </mxCell>
        <mxCell id="iFcWx9lhSXFR9I_ciD_3-16" value="&lt;font style=&quot;font-size: 16px;&quot;&gt;身份标识&lt;br&gt;&lt;/font&gt;" style="rounded=0;whiteSpace=wrap;html=1;" parent="1" vertex="1">
          <mxGeometry x="798" y="115" width="143" height="30" as="geometry" />
        </mxCell>
        <mxCell id="iFcWx9lhSXFR9I_ciD_3-17" value="&lt;font style=&quot;font-size: 16px;&quot;&gt;……&lt;br&gt;&lt;/font&gt;" style="rounded=0;whiteSpace=wrap;html=1;" parent="1" vertex="1">
          <mxGeometry x="1098" y="115" width="143" height="30" as="geometry" />
        </mxCell>
        <mxCell id="iFcWx9lhSXFR9I_ciD_3-18" value="&lt;font style=&quot;font-size: 16px;&quot;&gt;互动域&lt;br&gt;&lt;/font&gt;" style="rounded=0;whiteSpace=wrap;html=1;" parent="1" vertex="1">
          <mxGeometry x="903" y="167" width="143" height="30" as="geometry" />
        </mxCell>
        <mxCell id="iFcWx9lhSXFR9I_ciD_3-19" value="&lt;font style=&quot;font-size: 16px;&quot;&gt;交易域&lt;br&gt;&lt;/font&gt;" style="rounded=0;whiteSpace=wrap;html=1;" parent="1" vertex="1">
          <mxGeometry x="1203" y="167" width="143" height="30" as="geometry" />
        </mxCell>
        <mxCell id="iFcWx9lhSXFR9I_ciD_3-20" value="&lt;font style=&quot;font-size: 16px;&quot;&gt;流量域&lt;br&gt;&lt;/font&gt;" style="rounded=0;whiteSpace=wrap;html=1;" parent="1" vertex="1">
          <mxGeometry x="1053" y="167" width="143" height="30" as="geometry" />
        </mxCell>
        <mxCell id="iFcWx9lhSXFR9I_ciD_3-21" value="&lt;font style=&quot;font-size: 16px;&quot;&gt;……&lt;br&gt;&lt;/font&gt;" style="rounded=0;whiteSpace=wrap;html=1;" parent="1" vertex="1">
          <mxGeometry x="1353" y="167" width="143" height="30" as="geometry" />
        </mxCell>
        <mxCell id="iFcWx9lhSXFR9I_ciD_3-22" value="&lt;font style=&quot;font-size: 16px;&quot;&gt;互动域&lt;br&gt;&lt;/font&gt;" style="rounded=0;whiteSpace=wrap;html=1;" parent="1" vertex="1">
          <mxGeometry x="903" y="217" width="143" height="30" as="geometry" />
        </mxCell>
        <mxCell id="iFcWx9lhSXFR9I_ciD_3-23" value="&lt;font style=&quot;font-size: 16px;&quot;&gt;交易域&lt;br&gt;&lt;/font&gt;" style="rounded=0;whiteSpace=wrap;html=1;" parent="1" vertex="1">
          <mxGeometry x="1203" y="217" width="143" height="30" as="geometry" />
        </mxCell>
        <mxCell id="iFcWx9lhSXFR9I_ciD_3-24" value="&lt;font style=&quot;font-size: 16px;&quot;&gt;流量域&lt;br&gt;&lt;/font&gt;" style="rounded=0;whiteSpace=wrap;html=1;" parent="1" vertex="1">
          <mxGeometry x="1053" y="217" width="143" height="30" as="geometry" />
        </mxCell>
        <mxCell id="iFcWx9lhSXFR9I_ciD_3-25" value="&lt;font style=&quot;font-size: 16px;&quot;&gt;……&lt;br&gt;&lt;/font&gt;" style="rounded=0;whiteSpace=wrap;html=1;" parent="1" vertex="1">
          <mxGeometry x="1353" y="217" width="143" height="30" as="geometry" />
        </mxCell>
        <mxCell id="iFcWx9lhSXFR9I_ciD_3-26" value="&lt;font style=&quot;font-size: 16px;&quot;&gt;互动域&lt;br&gt;&lt;/font&gt;" style="rounded=0;whiteSpace=wrap;html=1;" parent="1" vertex="1">
          <mxGeometry x="903" y="267" width="143" height="30" as="geometry" />
        </mxCell>
        <mxCell id="iFcWx9lhSXFR9I_ciD_3-27" value="&lt;font style=&quot;font-size: 16px;&quot;&gt;交易域&lt;br&gt;&lt;/font&gt;" style="rounded=0;whiteSpace=wrap;html=1;" parent="1" vertex="1">
          <mxGeometry x="1203" y="267" width="143" height="30" as="geometry" />
        </mxCell>
        <mxCell id="iFcWx9lhSXFR9I_ciD_3-28" value="&lt;font style=&quot;font-size: 16px;&quot;&gt;流量域&lt;br&gt;&lt;/font&gt;" style="rounded=0;whiteSpace=wrap;html=1;" parent="1" vertex="1">
          <mxGeometry x="1053" y="267" width="143" height="30" as="geometry" />
        </mxCell>
        <mxCell id="iFcWx9lhSXFR9I_ciD_3-29" value="&lt;font style=&quot;font-size: 16px;&quot;&gt;……&lt;br&gt;&lt;/font&gt;" style="rounded=0;whiteSpace=wrap;html=1;" parent="1" vertex="1">
          <mxGeometry x="1353" y="267" width="143" height="30" as="geometry" />
        </mxCell>
        <mxCell id="iFcWx9lhSXFR9I_ciD_3-30" value="&lt;font style=&quot;font-size: 16px;&quot;&gt;直播&lt;br&gt;&lt;/font&gt;" style="rounded=0;whiteSpace=wrap;html=1;" parent="1" vertex="1">
          <mxGeometry x="903" y="317" width="143" height="30" as="geometry" />
        </mxCell>
        <mxCell id="iFcWx9lhSXFR9I_ciD_3-31" value="&lt;font style=&quot;font-size: 16px;&quot;&gt;其他&lt;br&gt;&lt;/font&gt;" style="rounded=0;whiteSpace=wrap;html=1;" parent="1" vertex="1">
          <mxGeometry x="1203" y="317" width="143" height="30" as="geometry" />
        </mxCell>
        <mxCell id="iFcWx9lhSXFR9I_ciD_3-32" value="&lt;font style=&quot;font-size: 16px;&quot;&gt;视频&lt;br&gt;&lt;/font&gt;" style="rounded=0;whiteSpace=wrap;html=1;" parent="1" vertex="1">
          <mxGeometry x="1053" y="317" width="143" height="30" as="geometry" />
        </mxCell>
        <mxCell id="iFcWx9lhSXFR9I_ciD_3-33" value="&lt;font style=&quot;font-size: 16px;&quot;&gt;……&lt;br&gt;&lt;/font&gt;" style="rounded=0;whiteSpace=wrap;html=1;" parent="1" vertex="1">
          <mxGeometry x="1353" y="317" width="143" height="30" as="geometry" />
        </mxCell>
        <mxCell id="iFcWx9lhSXFR9I_ciD_3-34" value="&lt;font style=&quot;font-size: 16px;&quot;&gt;核心数据&lt;br&gt;&lt;/font&gt;" style="rounded=0;whiteSpace=wrap;html=1;" parent="1" vertex="1">
          <mxGeometry x="-470" y="510" width="143" height="30" as="geometry" />
        </mxCell>
        <mxCell id="iFcWx9lhSXFR9I_ciD_3-35" value="&lt;font style=&quot;font-size: 16px;&quot;&gt;一般数据&lt;br&gt;&lt;/font&gt;" style="rounded=0;whiteSpace=wrap;html=1;" parent="1" vertex="1">
          <mxGeometry x="-170" y="510" width="143" height="30" as="geometry" />
        </mxCell>
        <mxCell id="iFcWx9lhSXFR9I_ciD_3-36" value="&lt;font style=&quot;font-size: 16px;&quot;&gt;重要数据&lt;br&gt;&lt;/font&gt;" style="rounded=0;whiteSpace=wrap;html=1;" parent="1" vertex="1">
          <mxGeometry x="-320" y="510" width="143" height="30" as="geometry" />
        </mxCell>
        <mxCell id="iFcWx9lhSXFR9I_ciD_3-37" value="&lt;font style=&quot;font-size: 16px;&quot;&gt;……&lt;br&gt;&lt;/font&gt;" style="rounded=0;whiteSpace=wrap;html=1;" parent="1" vertex="1">
          <mxGeometry x="-20" y="510" width="143" height="30" as="geometry" />
        </mxCell>
        <mxCell id="iFcWx9lhSXFR9I_ciD_3-38" value="&lt;font style=&quot;font-size: 16px;&quot;&gt;核心数据&lt;br&gt;&lt;/font&gt;" style="rounded=0;whiteSpace=wrap;html=1;" parent="1" vertex="1">
          <mxGeometry x="-470" y="560" width="143" height="30" as="geometry" />
        </mxCell>
        <mxCell id="iFcWx9lhSXFR9I_ciD_3-39" value="&lt;font style=&quot;font-size: 16px;&quot;&gt;一般数据&lt;br&gt;&lt;/font&gt;" style="rounded=0;whiteSpace=wrap;html=1;" parent="1" vertex="1">
          <mxGeometry x="-170" y="560" width="143" height="30" as="geometry" />
        </mxCell>
        <mxCell id="iFcWx9lhSXFR9I_ciD_3-40" value="&lt;font style=&quot;font-size: 16px;&quot;&gt;重要数据&lt;br&gt;&lt;/font&gt;" style="rounded=0;whiteSpace=wrap;html=1;" parent="1" vertex="1">
          <mxGeometry x="-320" y="560" width="143" height="30" as="geometry" />
        </mxCell>
        <mxCell id="iFcWx9lhSXFR9I_ciD_3-41" value="&lt;font style=&quot;font-size: 16px;&quot;&gt;……&lt;br&gt;&lt;/font&gt;" style="rounded=0;whiteSpace=wrap;html=1;" parent="1" vertex="1">
          <mxGeometry x="-20" y="560" width="143" height="30" as="geometry" />
        </mxCell>
        <mxCell id="iFcWx9lhSXFR9I_ciD_3-43" value="&lt;font style=&quot;font-size: 16px;&quot;&gt;会员&lt;br&gt;&lt;/font&gt;" style="rounded=0;whiteSpace=wrap;html=1;" parent="1" vertex="1">
          <mxGeometry x="367" y="-143" width="143" height="30" as="geometry" />
        </mxCell>
        <mxCell id="iFcWx9lhSXFR9I_ciD_3-44" value="&lt;font style=&quot;font-size: 16px;&quot;&gt;主播/UP主&lt;br&gt;&lt;/font&gt;" style="rounded=0;whiteSpace=wrap;html=1;" parent="1" vertex="1">
          <mxGeometry x="360" y="10" width="143" height="30" as="geometry" />
        </mxCell>
        <mxCell id="6SWimiSNGBgbK9WMwa3a-25" style="edgeStyle=orthogonalEdgeStyle;rounded=0;orthogonalLoop=1;jettySize=auto;html=1;exitX=1;exitY=0.5;exitDx=0;exitDy=0;entryX=0;entryY=0.5;entryDx=0;entryDy=0;fontSize=18;" parent="1" source="iFcWx9lhSXFR9I_ciD_3-45" target="iFcWx9lhSXFR9I_ciD_3-10" edge="1">
          <mxGeometry relative="1" as="geometry" />
        </mxCell>
        <mxCell id="iFcWx9lhSXFR9I_ciD_3-45" value="&lt;font style=&quot;font-size: 16px;&quot;&gt;公会&lt;br&gt;&lt;/font&gt;" style="rounded=0;whiteSpace=wrap;html=1;" parent="1" vertex="1">
          <mxGeometry x="360" y="70" width="143" height="30" as="geometry" />
        </mxCell>
        <mxCell id="6SWimiSNGBgbK9WMwa3a-26" style="edgeStyle=orthogonalEdgeStyle;rounded=0;orthogonalLoop=1;jettySize=auto;html=1;exitX=1;exitY=0.5;exitDx=0;exitDy=0;entryX=0;entryY=0.5;entryDx=0;entryDy=0;fontSize=18;" parent="1" source="iFcWx9lhSXFR9I_ciD_3-46" target="iFcWx9lhSXFR9I_ciD_3-14" edge="1">
          <mxGeometry relative="1" as="geometry" />
        </mxCell>
        <mxCell id="iFcWx9lhSXFR9I_ciD_3-46" value="&lt;font style=&quot;font-size: 16px;&quot;&gt;经纪公司&lt;br&gt;&lt;/font&gt;" style="rounded=0;whiteSpace=wrap;html=1;" parent="1" vertex="1">
          <mxGeometry x="360" y="115" width="143" height="30" as="geometry" />
        </mxCell>
        <mxCell id="iFcWx9lhSXFR9I_ciD_3-47" value="&lt;font style=&quot;font-size: 16px;&quot;&gt;全站&lt;br&gt;&lt;/font&gt;" style="rounded=0;whiteSpace=wrap;html=1;" parent="1" vertex="1">
          <mxGeometry x="360" y="242" width="143" height="30" as="geometry" />
        </mxCell>
        <mxCell id="iFcWx9lhSXFR9I_ciD_3-48" value="&lt;font style=&quot;font-size: 16px;&quot;&gt;中心/业务部/项目组&lt;br&gt;&lt;/font&gt;" style="rounded=0;whiteSpace=wrap;html=1;" parent="1" vertex="1">
          <mxGeometry x="360" y="370" width="143" height="30" as="geometry" />
        </mxCell>
        <mxCell id="iFcWx9lhSXFR9I_ciD_3-49" value="&lt;font style=&quot;font-size: 16px;&quot;&gt;分区/直播间/UP主&lt;br&gt;&lt;/font&gt;" style="rounded=0;whiteSpace=wrap;html=1;" parent="1" vertex="1">
          <mxGeometry x="360" y="430" width="143" height="30" as="geometry" />
        </mxCell>
        <mxCell id="iFcWx9lhSXFR9I_ciD_3-50" value="&lt;font style=&quot;font-size: 16px;&quot;&gt;公会/经纪公司&lt;br&gt;&lt;/font&gt;" style="rounded=0;whiteSpace=wrap;html=1;" parent="1" vertex="1">
          <mxGeometry x="360" y="480" width="143" height="30" as="geometry" />
        </mxCell>
        <mxCell id="iFcWx9lhSXFR9I_ciD_3-51" value="&lt;font style=&quot;font-size: 16px;&quot;&gt;ERP&lt;br&gt;&lt;/font&gt;" style="rounded=0;whiteSpace=wrap;html=1;" parent="1" vertex="1">
          <mxGeometry x="550" y="820" width="143" height="30" as="geometry" />
        </mxCell>
        <mxCell id="iFcWx9lhSXFR9I_ciD_3-52" value="&lt;font style=&quot;font-size: 16px;&quot;&gt;党政&lt;br&gt;&lt;/font&gt;" style="rounded=0;whiteSpace=wrap;html=1;" parent="1" vertex="1">
          <mxGeometry x="550" y="890" width="143" height="30" as="geometry" />
        </mxCell>
        <mxCell id="iFcWx9lhSXFR9I_ciD_3-53" value="&lt;font style=&quot;font-size: 16px;&quot;&gt;财务&lt;br&gt;&lt;/font&gt;" style="rounded=0;whiteSpace=wrap;html=1;" parent="1" vertex="1">
          <mxGeometry x="550" y="950" width="143" height="30" as="geometry" />
        </mxCell>
        <mxCell id="iFcWx9lhSXFR9I_ciD_3-54" value="&lt;font style=&quot;font-size: 16px;&quot;&gt;行政&lt;br&gt;&lt;/font&gt;" style="rounded=0;whiteSpace=wrap;html=1;" parent="1" vertex="1">
          <mxGeometry x="550" y="1010" width="143" height="30" as="geometry" />
        </mxCell>
        <mxCell id="iFcWx9lhSXFR9I_ciD_3-55" value="&lt;font style=&quot;font-size: 16px;&quot;&gt;人力资源&lt;br&gt;&lt;/font&gt;" style="rounded=0;whiteSpace=wrap;html=1;" parent="1" vertex="1">
          <mxGeometry x="550" y="1070" width="143" height="30" as="geometry" />
        </mxCell>
        <mxCell id="iFcWx9lhSXFR9I_ciD_3-56" value="&lt;font style=&quot;font-size: 16px;&quot;&gt;PMO&lt;br&gt;&lt;/font&gt;" style="rounded=0;whiteSpace=wrap;html=1;" parent="1" vertex="1">
          <mxGeometry x="550" y="1130" width="143" height="30" as="geometry" />
        </mxCell>
        <mxCell id="iFcWx9lhSXFR9I_ciD_3-57" value="&lt;font style=&quot;font-size: 16px;&quot;&gt;商务合作&lt;br&gt;&lt;/font&gt;" style="rounded=0;whiteSpace=wrap;html=1;" parent="1" vertex="1">
          <mxGeometry x="550" y="1180" width="143" height="30" as="geometry" />
        </mxCell>
        <mxCell id="iFcWx9lhSXFR9I_ciD_3-58" value="&lt;font style=&quot;font-size: 16px;&quot;&gt;客服&lt;br&gt;&lt;/font&gt;" style="rounded=0;whiteSpace=wrap;html=1;" parent="1" vertex="1">
          <mxGeometry x="550" y="1230" width="143" height="30" as="geometry" />
        </mxCell>
        <mxCell id="iFcWx9lhSXFR9I_ciD_3-59" value="&lt;font style=&quot;font-size: 16px;&quot;&gt;其他&lt;br&gt;&lt;/font&gt;" style="rounded=0;whiteSpace=wrap;html=1;" parent="1" vertex="1">
          <mxGeometry x="550" y="1280" width="143" height="30" as="geometry" />
        </mxCell>
        <mxCell id="6SWimiSNGBgbK9WMwa3a-3" value="按数据重要性分类" style="text;html=1;align=center;verticalAlign=middle;resizable=0;points=[];autosize=1;strokeColor=none;fillColor=none;" parent="1" vertex="1">
          <mxGeometry x="510" y="-138" width="120" height="30" as="geometry" />
        </mxCell>
        <mxCell id="6SWimiSNGBgbK9WMwa3a-19" style="edgeStyle=orthogonalEdgeStyle;rounded=0;orthogonalLoop=1;jettySize=auto;html=1;exitX=1;exitY=0.5;exitDx=0;exitDy=0;fontSize=18;" parent="1" source="6SWimiSNGBgbK9WMwa3a-5" target="6SWimiSNGBgbK9WMwa3a-15" edge="1">
          <mxGeometry relative="1" as="geometry" />
        </mxCell>
        <mxCell id="6SWimiSNGBgbK9WMwa3a-5" value="&lt;font style=&quot;font-size: 18px;&quot;&gt;确&lt;br&gt;定&lt;br&gt;分&lt;br&gt;类&lt;br&gt;分&lt;br&gt;级&lt;br&gt;策&lt;br&gt;略&lt;/font&gt;" style="rounded=0;whiteSpace=wrap;html=1;" parent="1" vertex="1">
          <mxGeometry x="-5" y="1810" width="50" height="180" as="geometry" />
        </mxCell>
        <mxCell id="6SWimiSNGBgbK9WMwa3a-18" style="edgeStyle=orthogonalEdgeStyle;rounded=0;orthogonalLoop=1;jettySize=auto;html=1;exitX=1;exitY=0.5;exitDx=0;exitDy=0;fontSize=18;" parent="1" source="6SWimiSNGBgbK9WMwa3a-14" target="6SWimiSNGBgbK9WMwa3a-5" edge="1">
          <mxGeometry relative="1" as="geometry" />
        </mxCell>
        <mxCell id="6SWimiSNGBgbK9WMwa3a-14" value="&lt;span style=&quot;font-size: 18px;&quot;&gt;梳&lt;br&gt;理&lt;br&gt;数&lt;br&gt;据&lt;br&gt;资&lt;br&gt;源&lt;/span&gt;" style="rounded=0;whiteSpace=wrap;html=1;" parent="1" vertex="1">
          <mxGeometry x="-110" y="1810" width="50" height="180" as="geometry" />
        </mxCell>
        <mxCell id="6SWimiSNGBgbK9WMwa3a-20" style="edgeStyle=orthogonalEdgeStyle;rounded=0;orthogonalLoop=1;jettySize=auto;html=1;exitX=1;exitY=0.5;exitDx=0;exitDy=0;fontSize=18;" parent="1" source="6SWimiSNGBgbK9WMwa3a-15" target="6SWimiSNGBgbK9WMwa3a-16" edge="1">
          <mxGeometry relative="1" as="geometry" />
        </mxCell>
        <mxCell id="6SWimiSNGBgbK9WMwa3a-15" value="&lt;span style=&quot;font-size: 18px;&quot;&gt;数&lt;br&gt;据&lt;br&gt;分&lt;br&gt;类&lt;/span&gt;" style="rounded=0;whiteSpace=wrap;html=1;" parent="1" vertex="1">
          <mxGeometry x="100" y="1810" width="50" height="180" as="geometry" />
        </mxCell>
        <mxCell id="6SWimiSNGBgbK9WMwa3a-21" style="edgeStyle=orthogonalEdgeStyle;rounded=0;orthogonalLoop=1;jettySize=auto;html=1;exitX=1;exitY=0.5;exitDx=0;exitDy=0;fontSize=18;" parent="1" source="6SWimiSNGBgbK9WMwa3a-16" target="6SWimiSNGBgbK9WMwa3a-17" edge="1">
          <mxGeometry relative="1" as="geometry" />
        </mxCell>
        <mxCell id="6SWimiSNGBgbK9WMwa3a-16" value="&lt;span style=&quot;font-size: 18px;&quot;&gt;数&lt;br&gt;据&lt;br&gt;定&lt;br&gt;级&lt;br&gt;&lt;/span&gt;" style="rounded=0;whiteSpace=wrap;html=1;" parent="1" vertex="1">
          <mxGeometry x="205" y="1810" width="50" height="180" as="geometry" />
        </mxCell>
        <mxCell id="6SWimiSNGBgbK9WMwa3a-17" value="&lt;span style=&quot;font-size: 18px;&quot;&gt;落&lt;br&gt;地&lt;br&gt;及&lt;br&gt;长&lt;br&gt;期&lt;br&gt;运&lt;br&gt;营&lt;/span&gt;&lt;span style=&quot;font-size: 18px;&quot;&gt;&lt;br&gt;&lt;/span&gt;" style="rounded=0;whiteSpace=wrap;html=1;" parent="1" vertex="1">
          <mxGeometry x="310" y="1810" width="50" height="180" as="geometry" />
        </mxCell>
        <mxCell id="6SWimiSNGBgbK9WMwa3a-24" value="按数据重要性分类" style="text;html=1;align=center;verticalAlign=middle;resizable=0;points=[];autosize=1;strokeColor=none;fillColor=none;" parent="1" vertex="1">
          <mxGeometry x="510" y="-10" width="120" height="30" as="geometry" />
        </mxCell>
        <mxCell id="6SWimiSNGBgbK9WMwa3a-27" value="按数据重要性分类" style="text;html=1;align=center;verticalAlign=middle;resizable=0;points=[];autosize=1;strokeColor=none;fillColor=none;" parent="1" vertex="1">
          <mxGeometry x="510" y="57" width="120" height="30" as="geometry" />
        </mxCell>
        <mxCell id="6SWimiSNGBgbK9WMwa3a-28" value="按数据重要性分类" style="text;html=1;align=center;verticalAlign=middle;resizable=0;points=[];autosize=1;strokeColor=none;fillColor=none;" parent="1" vertex="1">
          <mxGeometry x="510" y="100" width="120" height="30" as="geometry" />
        </mxCell>
        <mxCell id="6SWimiSNGBgbK9WMwa3a-33" style="edgeStyle=orthogonalEdgeStyle;rounded=0;orthogonalLoop=1;jettySize=auto;html=1;exitX=1;exitY=0.5;exitDx=0;exitDy=0;fontSize=18;" parent="1" source="6SWimiSNGBgbK9WMwa3a-29" target="iFcWx9lhSXFR9I_ciD_3-18" edge="1">
          <mxGeometry relative="1" as="geometry" />
        </mxCell>
        <mxCell id="6SWimiSNGBgbK9WMwa3a-29" value="&lt;font style=&quot;font-size: 16px;&quot;&gt;直播&lt;br&gt;&lt;/font&gt;" style="rounded=0;whiteSpace=wrap;html=1;" parent="1" vertex="1">
          <mxGeometry x="643" y="167" width="143" height="30" as="geometry" />
        </mxCell>
        <mxCell id="6SWimiSNGBgbK9WMwa3a-35" style="edgeStyle=orthogonalEdgeStyle;rounded=0;orthogonalLoop=1;jettySize=auto;html=1;exitX=1;exitY=0.5;exitDx=0;exitDy=0;entryX=0;entryY=0.5;entryDx=0;entryDy=0;fontSize=18;" parent="1" source="6SWimiSNGBgbK9WMwa3a-30" target="iFcWx9lhSXFR9I_ciD_3-22" edge="1">
          <mxGeometry relative="1" as="geometry" />
        </mxCell>
        <mxCell id="6SWimiSNGBgbK9WMwa3a-30" value="&lt;font style=&quot;font-size: 16px;&quot;&gt;视频&lt;br&gt;&lt;/font&gt;" style="rounded=0;whiteSpace=wrap;html=1;" parent="1" vertex="1">
          <mxGeometry x="643" y="217" width="143" height="30" as="geometry" />
        </mxCell>
        <mxCell id="6SWimiSNGBgbK9WMwa3a-36" style="edgeStyle=orthogonalEdgeStyle;rounded=0;orthogonalLoop=1;jettySize=auto;html=1;exitX=1;exitY=0.5;exitDx=0;exitDy=0;entryX=0;entryY=0.5;entryDx=0;entryDy=0;fontSize=18;" parent="1" source="6SWimiSNGBgbK9WMwa3a-31" target="iFcWx9lhSXFR9I_ciD_3-26" edge="1">
          <mxGeometry relative="1" as="geometry" />
        </mxCell>
        <mxCell id="6SWimiSNGBgbK9WMwa3a-31" value="&lt;font style=&quot;font-size: 16px;&quot;&gt;社区&lt;br&gt;&lt;/font&gt;" style="rounded=0;whiteSpace=wrap;html=1;" parent="1" vertex="1">
          <mxGeometry x="643" y="267" width="143" height="30" as="geometry" />
        </mxCell>
        <mxCell id="6SWimiSNGBgbK9WMwa3a-37" style="edgeStyle=orthogonalEdgeStyle;rounded=0;orthogonalLoop=1;jettySize=auto;html=1;exitX=1;exitY=0.5;exitDx=0;exitDy=0;entryX=0;entryY=0.5;entryDx=0;entryDy=0;fontSize=18;" parent="1" source="6SWimiSNGBgbK9WMwa3a-32" target="iFcWx9lhSXFR9I_ciD_3-30" edge="1">
          <mxGeometry relative="1" as="geometry" />
        </mxCell>
        <mxCell id="6SWimiSNGBgbK9WMwa3a-32" value="&lt;font style=&quot;font-size: 16px;&quot;&gt;频道&lt;br&gt;&lt;/font&gt;" style="rounded=0;whiteSpace=wrap;html=1;" parent="1" vertex="1">
          <mxGeometry x="643" y="317" width="143" height="30" as="geometry" />
        </mxCell>
        <mxCell id="6SWimiSNGBgbK9WMwa3a-34" value="按数据域分类" style="text;html=1;align=center;verticalAlign=middle;resizable=0;points=[];autosize=1;strokeColor=none;fillColor=none;" parent="1" vertex="1">
          <mxGeometry x="793" y="157" width="100" height="30" as="geometry" />
        </mxCell>
        <mxCell id="6SWimiSNGBgbK9WMwa3a-38" value="按数据域分类" style="text;html=1;align=center;verticalAlign=middle;resizable=0;points=[];autosize=1;strokeColor=none;fillColor=none;" parent="1" vertex="1">
          <mxGeometry x="793" y="207" width="100" height="30" as="geometry" />
        </mxCell>
        <mxCell id="6SWimiSNGBgbK9WMwa3a-39" value="按数据域分类" style="text;html=1;align=center;verticalAlign=middle;resizable=0;points=[];autosize=1;strokeColor=none;fillColor=none;" parent="1" vertex="1">
          <mxGeometry x="793" y="247" width="100" height="30" as="geometry" />
        </mxCell>
        <mxCell id="6SWimiSNGBgbK9WMwa3a-40" value="按数据域分类" style="text;html=1;align=center;verticalAlign=middle;resizable=0;points=[];autosize=1;strokeColor=none;fillColor=none;" parent="1" vertex="1">
          <mxGeometry x="793" y="297" width="100" height="30" as="geometry" />
        </mxCell>
        <mxCell id="6SWimiSNGBgbK9WMwa3a-41" value="" style="shape=curlyBracket;whiteSpace=wrap;html=1;rounded=1;fontSize=18;size=0.5;" parent="1" vertex="1">
          <mxGeometry x="563" y="177" width="73" height="160" as="geometry" />
        </mxCell>
        <mxCell id="6SWimiSNGBgbK9WMwa3a-46" value="" style="line;strokeWidth=1;html=1;fontSize=18;" parent="1" vertex="1">
          <mxGeometry x="503" y="252" width="90" height="10" as="geometry" />
        </mxCell>
        <mxCell id="6SWimiSNGBgbK9WMwa3a-49" value="按业务域分类" style="text;html=1;align=center;verticalAlign=middle;resizable=0;points=[];autosize=1;strokeColor=none;fillColor=none;" parent="1" vertex="1">
          <mxGeometry x="503" y="222" width="100" height="30" as="geometry" />
        </mxCell>
        <mxCell id="6SWimiSNGBgbK9WMwa3a-61" value="" style="group" parent="1" vertex="1" connectable="0">
          <mxGeometry x="370" y="2030" width="150" height="240" as="geometry" />
        </mxCell>
        <mxCell id="6SWimiSNGBgbK9WMwa3a-52" value="产生方式&lt;br&gt;&lt;br&gt;产生频率&lt;br&gt;&lt;br&gt;数据体量&lt;br&gt;&lt;br&gt;结构化特征" style="rounded=0;whiteSpace=wrap;html=1;fontSize=18;strokeWidth=1;" parent="6SWimiSNGBgbK9WMwa3a-61" vertex="1">
          <mxGeometry y="60" width="150" height="180" as="geometry" />
        </mxCell>
        <mxCell id="6SWimiSNGBgbK9WMwa3a-57" value="&lt;font style=&quot;font-size: 24px;&quot;&gt;数据管理&lt;/font&gt;" style="rounded=0;whiteSpace=wrap;html=1;fontSize=18;strokeWidth=1;fillColor=#dae8fc;strokeColor=#6c8ebf;" parent="6SWimiSNGBgbK9WMwa3a-61" vertex="1">
          <mxGeometry width="150" height="40" as="geometry" />
        </mxCell>
        <mxCell id="6SWimiSNGBgbK9WMwa3a-62" value="" style="group" parent="1" vertex="1" connectable="0">
          <mxGeometry x="570" y="2030" width="150" height="240" as="geometry" />
        </mxCell>
        <mxCell id="6SWimiSNGBgbK9WMwa3a-53" value="所属主题&lt;br&gt;&lt;br&gt;所属业务&lt;br&gt;&lt;br&gt;应用场景&lt;br&gt;&lt;br&gt;共享属性" style="rounded=0;whiteSpace=wrap;html=1;fontSize=18;strokeWidth=1;" parent="6SWimiSNGBgbK9WMwa3a-62" vertex="1">
          <mxGeometry y="60" width="150" height="180" as="geometry" />
        </mxCell>
        <mxCell id="6SWimiSNGBgbK9WMwa3a-58" value="&lt;font style=&quot;font-size: 24px;&quot;&gt;业务应用&lt;/font&gt;" style="rounded=0;whiteSpace=wrap;html=1;fontSize=18;strokeWidth=1;fillColor=#dae8fc;strokeColor=#6c8ebf;" parent="6SWimiSNGBgbK9WMwa3a-62" vertex="1">
          <mxGeometry width="150" height="40" as="geometry" />
        </mxCell>
        <mxCell id="6SWimiSNGBgbK9WMwa3a-63" value="" style="group" parent="1" vertex="1" connectable="0">
          <mxGeometry x="770" y="2030" width="150" height="240" as="geometry" />
        </mxCell>
        <mxCell id="6SWimiSNGBgbK9WMwa3a-54" value="核心数据&lt;br&gt;&lt;br&gt;重要数据&lt;br&gt;&lt;br&gt;一般数据" style="rounded=0;whiteSpace=wrap;html=1;fontSize=18;strokeWidth=1;" parent="6SWimiSNGBgbK9WMwa3a-63" vertex="1">
          <mxGeometry y="60" width="150" height="180" as="geometry" />
        </mxCell>
        <mxCell id="6SWimiSNGBgbK9WMwa3a-59" value="&lt;font style=&quot;font-size: 24px;&quot;&gt;安全与隐私&lt;/font&gt;" style="rounded=0;whiteSpace=wrap;html=1;fontSize=18;strokeWidth=1;fillColor=#dae8fc;strokeColor=#6c8ebf;" parent="6SWimiSNGBgbK9WMwa3a-63" vertex="1">
          <mxGeometry width="150" height="40" as="geometry" />
        </mxCell>
        <mxCell id="6SWimiSNGBgbK9WMwa3a-64" value="" style="group" parent="1" vertex="1" connectable="0">
          <mxGeometry x="970" y="2030" width="150" height="240" as="geometry" />
        </mxCell>
        <mxCell id="6SWimiSNGBgbK9WMwa3a-56" value="个人数据&lt;br&gt;&lt;br&gt;组织数据&lt;br&gt;&lt;br&gt;客体数据&lt;br&gt;&lt;br&gt;分析型数据" style="rounded=0;whiteSpace=wrap;html=1;fontSize=18;strokeWidth=1;" parent="6SWimiSNGBgbK9WMwa3a-64" vertex="1">
          <mxGeometry y="60" width="150" height="180" as="geometry" />
        </mxCell>
        <mxCell id="6SWimiSNGBgbK9WMwa3a-60" value="&lt;font style=&quot;font-size: 24px;&quot;&gt;数据对象&lt;/font&gt;" style="rounded=0;whiteSpace=wrap;html=1;fontSize=18;strokeWidth=1;fillColor=#dae8fc;strokeColor=#6c8ebf;" parent="6SWimiSNGBgbK9WMwa3a-64" vertex="1">
          <mxGeometry width="150" height="40" as="geometry" />
        </mxCell>
        <mxCell id="l-vcD5tPlWXEB158viD7-11" style="edgeStyle=orthogonalEdgeStyle;rounded=0;orthogonalLoop=1;jettySize=auto;html=1;exitX=1;exitY=0.5;exitDx=0;exitDy=0;entryX=0;entryY=0.5;entryDx=0;entryDy=0;fontSize=18;" parent="1" source="l-vcD5tPlWXEB158viD7-1" target="l-vcD5tPlWXEB158viD7-3" edge="1">
          <mxGeometry relative="1" as="geometry" />
        </mxCell>
        <mxCell id="l-vcD5tPlWXEB158viD7-12" style="edgeStyle=orthogonalEdgeStyle;rounded=0;orthogonalLoop=1;jettySize=auto;html=1;exitX=1;exitY=0.5;exitDx=0;exitDy=0;entryX=0;entryY=0.5;entryDx=0;entryDy=0;fontSize=18;" parent="1" source="l-vcD5tPlWXEB158viD7-1" target="l-vcD5tPlWXEB158viD7-4" edge="1">
          <mxGeometry relative="1" as="geometry" />
        </mxCell>
        <mxCell id="l-vcD5tPlWXEB158viD7-1" value="&lt;font style=&quot;font-size: 18px;&quot;&gt;打点日志搜集&lt;/font&gt;" style="rounded=1;whiteSpace=wrap;html=1;" parent="1" vertex="1">
          <mxGeometry x="-680" y="1180" width="120" height="60" as="geometry" />
        </mxCell>
        <mxCell id="l-vcD5tPlWXEB158viD7-13" style="edgeStyle=orthogonalEdgeStyle;rounded=0;orthogonalLoop=1;jettySize=auto;html=1;exitX=1;exitY=0.5;exitDx=0;exitDy=0;entryX=0;entryY=0.5;entryDx=0;entryDy=0;fontSize=18;" parent="1" source="l-vcD5tPlWXEB158viD7-3" target="l-vcD5tPlWXEB158viD7-6" edge="1">
          <mxGeometry relative="1" as="geometry" />
        </mxCell>
        <mxCell id="l-vcD5tPlWXEB158viD7-3" value="离线日志&lt;br&gt;磁盘" style="shape=process;whiteSpace=wrap;html=1;backgroundOutline=1;fontSize=18;" parent="1" vertex="1">
          <mxGeometry x="-458" y="1109" width="120" height="60" as="geometry" />
        </mxCell>
        <mxCell id="l-vcD5tPlWXEB158viD7-17" style="edgeStyle=orthogonalEdgeStyle;rounded=0;orthogonalLoop=1;jettySize=auto;html=1;exitX=1;exitY=0.5;exitDx=0;exitDy=0;entryX=0;entryY=0.5;entryDx=0;entryDy=0;fontSize=18;" parent="1" source="l-vcD5tPlWXEB158viD7-4" target="l-vcD5tPlWXEB158viD7-5" edge="1">
          <mxGeometry relative="1" as="geometry" />
        </mxCell>
        <mxCell id="l-vcD5tPlWXEB158viD7-4" value="实时日志&lt;br&gt;Kafka" style="shape=process;whiteSpace=wrap;html=1;backgroundOutline=1;fontSize=18;" parent="1" vertex="1">
          <mxGeometry x="-458" y="1250" width="120" height="60" as="geometry" />
        </mxCell>
        <mxCell id="l-vcD5tPlWXEB158viD7-18" style="edgeStyle=orthogonalEdgeStyle;rounded=0;orthogonalLoop=1;jettySize=auto;html=1;exitX=1;exitY=0.5;exitDx=0;exitDy=0;fontSize=18;" parent="1" source="l-vcD5tPlWXEB158viD7-5" target="l-vcD5tPlWXEB158viD7-10" edge="1">
          <mxGeometry relative="1" as="geometry" />
        </mxCell>
        <mxCell id="l-vcD5tPlWXEB158viD7-5" value="按点位分发到不同Kafka" style="rounded=0;whiteSpace=wrap;html=1;fontSize=18;" parent="1" vertex="1">
          <mxGeometry x="-283" y="1250" width="120" height="60" as="geometry" />
        </mxCell>
        <mxCell id="l-vcD5tPlWXEB158viD7-14" style="edgeStyle=orthogonalEdgeStyle;rounded=0;orthogonalLoop=1;jettySize=auto;html=1;exitX=1;exitY=0.5;exitDx=0;exitDy=0;entryX=0;entryY=0.5;entryDx=0;entryDy=0;fontSize=18;" parent="1" source="l-vcD5tPlWXEB158viD7-6" target="l-vcD5tPlWXEB158viD7-7" edge="1">
          <mxGeometry relative="1" as="geometry" />
        </mxCell>
        <mxCell id="l-vcD5tPlWXEB158viD7-6" value="监控文件变更&lt;br&gt;写入OBS" style="rounded=0;whiteSpace=wrap;html=1;fontSize=18;" parent="1" vertex="1">
          <mxGeometry x="-283" y="1109" width="120" height="60" as="geometry" />
        </mxCell>
        <mxCell id="l-vcD5tPlWXEB158viD7-15" style="edgeStyle=orthogonalEdgeStyle;rounded=0;orthogonalLoop=1;jettySize=auto;html=1;exitX=1;exitY=0.5;exitDx=0;exitDy=0;entryX=0;entryY=0.5;entryDx=0;entryDy=0;fontSize=18;" parent="1" source="l-vcD5tPlWXEB158viD7-7" target="l-vcD5tPlWXEB158viD7-8" edge="1">
          <mxGeometry relative="1" as="geometry" />
        </mxCell>
        <mxCell id="l-vcD5tPlWXEB158viD7-7" value="数仓外部表" style="rounded=0;whiteSpace=wrap;html=1;fontSize=18;" parent="1" vertex="1">
          <mxGeometry x="-109" y="1109" width="120" height="60" as="geometry" />
        </mxCell>
        <mxCell id="l-vcD5tPlWXEB158viD7-16" style="edgeStyle=orthogonalEdgeStyle;rounded=0;orthogonalLoop=1;jettySize=auto;html=1;exitX=1;exitY=0.5;exitDx=0;exitDy=0;entryX=0;entryY=0.5;entryDx=0;entryDy=0;fontSize=18;" parent="1" source="l-vcD5tPlWXEB158viD7-8" target="l-vcD5tPlWXEB158viD7-9" edge="1">
          <mxGeometry relative="1" as="geometry" />
        </mxCell>
        <mxCell id="l-vcD5tPlWXEB158viD7-8" value="数仓ODS表" style="rounded=0;whiteSpace=wrap;html=1;fontSize=18;" parent="1" vertex="1">
          <mxGeometry x="66" y="1109" width="120" height="60" as="geometry" />
        </mxCell>
        <mxCell id="l-vcD5tPlWXEB158viD7-9" value="Doris&lt;br&gt;OLAP分析" style="rounded=0;whiteSpace=wrap;html=1;fontSize=18;" parent="1" vertex="1">
          <mxGeometry x="240" y="1109" width="120" height="60" as="geometry" />
        </mxCell>
        <mxCell id="l-vcD5tPlWXEB158viD7-10" value="实时分析" style="rounded=0;whiteSpace=wrap;html=1;fontSize=18;" parent="1" vertex="1">
          <mxGeometry x="-109" y="1250" width="120" height="60" as="geometry" />
        </mxCell>
        <mxCell id="OuyBbQTgeXAvmUCCN6ac-2" value="&lt;font style=&quot;font-size: 16px;&quot;&gt;监管合规&lt;br&gt;&lt;br&gt;&lt;br&gt;&lt;br&gt;&lt;br&gt;&lt;br&gt;&lt;br&gt;&lt;br&gt;&lt;br&gt;&lt;/font&gt;" style="rounded=0;whiteSpace=wrap;html=1;" parent="1" vertex="1">
          <mxGeometry x="1800" y="-126" width="110" height="200" as="geometry" />
        </mxCell>
        <mxCell id="OuyBbQTgeXAvmUCCN6ac-3" value="&lt;font style=&quot;font-size: 16px;&quot;&gt;业务需求&lt;br&gt;&lt;br&gt;&lt;br&gt;&lt;br&gt;&lt;br&gt;&lt;br&gt;&lt;br&gt;&lt;br&gt;&lt;br&gt;&lt;/font&gt;" style="rounded=0;whiteSpace=wrap;html=1;" parent="1" vertex="1">
          <mxGeometry x="1800" y="82" width="110" height="190" as="geometry" />
        </mxCell>
        <mxCell id="OuyBbQTgeXAvmUCCN6ac-4" value="&lt;font style=&quot;font-size: 16px;&quot;&gt;基础安全&lt;br&gt;&lt;br&gt;&lt;br&gt;&lt;br&gt;&lt;br&gt;&lt;br&gt;&lt;br&gt;&lt;br&gt;&lt;/font&gt;" style="rounded=0;whiteSpace=wrap;html=1;" parent="1" vertex="1">
          <mxGeometry x="2040" y="510" width="645" height="180" as="geometry" />
        </mxCell>
        <mxCell id="OuyBbQTgeXAvmUCCN6ac-7" value="&lt;font style=&quot;font-size: 16px;&quot;&gt;安全运营&lt;br&gt;&lt;br&gt;&lt;br&gt;&lt;br&gt;&lt;br&gt;&lt;br&gt;&lt;br&gt;&lt;br&gt;&lt;br&gt;&lt;br&gt;&lt;br&gt;&lt;br&gt;&lt;br&gt;&lt;br&gt;&lt;br&gt;&lt;/font&gt;" style="rounded=0;whiteSpace=wrap;html=1;" parent="1" vertex="1">
          <mxGeometry x="2770" y="17" width="110" height="323" as="geometry" />
        </mxCell>
        <mxCell id="OuyBbQTgeXAvmUCCN6ac-8" value="&lt;font style=&quot;font-size: 16px;&quot;&gt;安全管理&lt;br&gt;&lt;br&gt;&lt;br&gt;&lt;br&gt;&lt;br&gt;&lt;br&gt;&lt;br&gt;&lt;br&gt;&lt;br&gt;&lt;br&gt;&lt;br&gt;&lt;br&gt;&lt;br&gt;&lt;br&gt;&lt;br&gt;&lt;/font&gt;" style="rounded=0;whiteSpace=wrap;html=1;" parent="1" vertex="1">
          <mxGeometry x="2900" y="17" width="110" height="323" as="geometry" />
        </mxCell>
        <mxCell id="LWDec0ok-VuoAz_Tq3SS-5" value="数据采集" style="html=1;shadow=0;dashed=0;align=center;verticalAlign=middle;shape=mxgraph.arrows2.arrow;dy=0;dx=10;notch=10;fontSize=14;" vertex="1" parent="1">
          <mxGeometry x="2045" y="204" width="100" height="30" as="geometry" />
        </mxCell>
        <mxCell id="LWDec0ok-VuoAz_Tq3SS-6" value="数据传输" style="html=1;shadow=0;dashed=0;align=center;verticalAlign=middle;shape=mxgraph.arrows2.arrow;dy=0;dx=10;notch=10;fontSize=14;" vertex="1" parent="1">
          <mxGeometry x="2151" y="204" width="100" height="30" as="geometry" />
        </mxCell>
        <mxCell id="LWDec0ok-VuoAz_Tq3SS-7" value="数据存储" style="html=1;shadow=0;dashed=0;align=center;verticalAlign=middle;shape=mxgraph.arrows2.arrow;dy=0;dx=10;notch=10;fontSize=14;" vertex="1" parent="1">
          <mxGeometry x="2257" y="204" width="100" height="30" as="geometry" />
        </mxCell>
        <mxCell id="LWDec0ok-VuoAz_Tq3SS-8" value="数据处理" style="html=1;shadow=0;dashed=0;align=center;verticalAlign=middle;shape=mxgraph.arrows2.arrow;dy=0;dx=10;notch=10;fontSize=14;" vertex="1" parent="1">
          <mxGeometry x="2363" y="204" width="100" height="30" as="geometry" />
        </mxCell>
        <mxCell id="LWDec0ok-VuoAz_Tq3SS-9" value="数据交换" style="html=1;shadow=0;dashed=0;align=center;verticalAlign=middle;shape=mxgraph.arrows2.arrow;dy=0;dx=10;notch=10;fontSize=14;" vertex="1" parent="1">
          <mxGeometry x="2469" y="204" width="100" height="30" as="geometry" />
        </mxCell>
        <mxCell id="LWDec0ok-VuoAz_Tq3SS-10" value="数据销毁" style="html=1;shadow=0;dashed=0;align=center;verticalAlign=middle;shape=mxgraph.arrows2.arrow;dy=0;dx=10;notch=10;fontSize=14;" vertex="1" parent="1">
          <mxGeometry x="2575" y="204" width="100" height="30" as="geometry" />
        </mxCell>
        <mxCell id="LWDec0ok-VuoAz_Tq3SS-14" value="&lt;font style=&quot;font-size: 16px;&quot;&gt;可见&lt;br&gt;&lt;br&gt;&lt;br&gt;&lt;br&gt;&lt;/font&gt;" style="rounded=0;whiteSpace=wrap;html=1;" vertex="1" parent="1">
          <mxGeometry x="2045" y="244.5" width="150" height="90" as="geometry" />
        </mxCell>
        <mxCell id="LWDec0ok-VuoAz_Tq3SS-16" value="&lt;font style=&quot;&quot;&gt;&lt;font style=&quot;font-size: 12px;&quot;&gt;资产地图&lt;/font&gt;&lt;br&gt;&lt;/font&gt;" style="rounded=0;whiteSpace=wrap;html=1;" vertex="1" parent="1">
          <mxGeometry x="2052" y="274.5" width="63" height="24" as="geometry" />
        </mxCell>
        <mxCell id="LWDec0ok-VuoAz_Tq3SS-23" value="&lt;font style=&quot;&quot;&gt;&lt;font style=&quot;font-size: 12px;&quot;&gt;数据分级&lt;/font&gt;&lt;br&gt;&lt;/font&gt;" style="rounded=0;whiteSpace=wrap;html=1;" vertex="1" parent="1">
          <mxGeometry x="2052" y="304.5" width="63" height="24" as="geometry" />
        </mxCell>
        <mxCell id="LWDec0ok-VuoAz_Tq3SS-24" value="&lt;font style=&quot;&quot;&gt;&lt;font style=&quot;font-size: 12px;&quot;&gt;数据分类&lt;/font&gt;&lt;br&gt;&lt;/font&gt;" style="rounded=0;whiteSpace=wrap;html=1;" vertex="1" parent="1">
          <mxGeometry x="2125" y="274.5" width="63" height="24" as="geometry" />
        </mxCell>
        <mxCell id="LWDec0ok-VuoAz_Tq3SS-25" value="&lt;font style=&quot;&quot;&gt;&lt;font style=&quot;font-size: 12px;&quot;&gt;资产可视&lt;/font&gt;&lt;br&gt;&lt;/font&gt;" style="rounded=0;whiteSpace=wrap;html=1;" vertex="1" parent="1">
          <mxGeometry x="2125" y="304.5" width="63" height="24" as="geometry" />
        </mxCell>
        <mxCell id="LWDec0ok-VuoAz_Tq3SS-26" value="&lt;font style=&quot;font-size: 16px;&quot;&gt;可知&lt;br&gt;&lt;br&gt;&lt;br&gt;&lt;br&gt;&lt;/font&gt;" style="rounded=0;whiteSpace=wrap;html=1;" vertex="1" parent="1">
          <mxGeometry x="2205" y="243.5" width="150" height="90" as="geometry" />
        </mxCell>
        <mxCell id="LWDec0ok-VuoAz_Tq3SS-27" value="&lt;font style=&quot;&quot;&gt;&lt;font style=&quot;font-size: 12px;&quot;&gt;关联系统&lt;/font&gt;&lt;br&gt;&lt;/font&gt;" style="rounded=0;whiteSpace=wrap;html=1;" vertex="1" parent="1">
          <mxGeometry x="2212" y="273.5" width="63" height="24" as="geometry" />
        </mxCell>
        <mxCell id="LWDec0ok-VuoAz_Tq3SS-28" value="&lt;font style=&quot;&quot;&gt;&lt;font style=&quot;font-size: 12px;&quot;&gt;共享关系&lt;/font&gt;&lt;br&gt;&lt;/font&gt;" style="rounded=0;whiteSpace=wrap;html=1;" vertex="1" parent="1">
          <mxGeometry x="2212" y="303.5" width="63" height="24" as="geometry" />
        </mxCell>
        <mxCell id="LWDec0ok-VuoAz_Tq3SS-29" value="&lt;font style=&quot;&quot;&gt;&lt;font style=&quot;font-size: 12px;&quot;&gt;数据流转&lt;/font&gt;&lt;br&gt;&lt;/font&gt;" style="rounded=0;whiteSpace=wrap;html=1;" vertex="1" parent="1">
          <mxGeometry x="2285" y="273.5" width="63" height="24" as="geometry" />
        </mxCell>
        <mxCell id="LWDec0ok-VuoAz_Tq3SS-30" value="&lt;font style=&quot;&quot;&gt;&lt;font style=&quot;font-size: 12px;&quot;&gt;行为关系&lt;/font&gt;&lt;br&gt;&lt;/font&gt;" style="rounded=0;whiteSpace=wrap;html=1;" vertex="1" parent="1">
          <mxGeometry x="2285" y="303.5" width="63" height="24" as="geometry" />
        </mxCell>
        <mxCell id="LWDec0ok-VuoAz_Tq3SS-31" value="&lt;font style=&quot;font-size: 16px;&quot;&gt;可管&lt;br&gt;&lt;br&gt;&lt;br&gt;&lt;br&gt;&lt;/font&gt;" style="rounded=0;whiteSpace=wrap;html=1;" vertex="1" parent="1">
          <mxGeometry x="2365" y="243.5" width="150" height="90" as="geometry" />
        </mxCell>
        <mxCell id="LWDec0ok-VuoAz_Tq3SS-32" value="&lt;font style=&quot;&quot;&gt;&lt;font style=&quot;font-size: 12px;&quot;&gt;权限管理&lt;/font&gt;&lt;br&gt;&lt;/font&gt;" style="rounded=0;whiteSpace=wrap;html=1;" vertex="1" parent="1">
          <mxGeometry x="2372" y="273.5" width="63" height="24" as="geometry" />
        </mxCell>
        <mxCell id="LWDec0ok-VuoAz_Tq3SS-33" value="&lt;font style=&quot;&quot;&gt;&lt;font style=&quot;font-size: 12px;&quot;&gt;加密解密&lt;/font&gt;&lt;br&gt;&lt;/font&gt;" style="rounded=0;whiteSpace=wrap;html=1;" vertex="1" parent="1">
          <mxGeometry x="2372" y="303.5" width="63" height="24" as="geometry" />
        </mxCell>
        <mxCell id="LWDec0ok-VuoAz_Tq3SS-34" value="&lt;font style=&quot;&quot;&gt;&lt;font style=&quot;font-size: 12px;&quot;&gt;操作管控&lt;/font&gt;&lt;br&gt;&lt;/font&gt;" style="rounded=0;whiteSpace=wrap;html=1;" vertex="1" parent="1">
          <mxGeometry x="2445" y="273.5" width="63" height="24" as="geometry" />
        </mxCell>
        <mxCell id="LWDec0ok-VuoAz_Tq3SS-35" value="&lt;font style=&quot;&quot;&gt;数据脱敏&lt;br&gt;&lt;/font&gt;" style="rounded=0;whiteSpace=wrap;html=1;" vertex="1" parent="1">
          <mxGeometry x="2445" y="303.5" width="63" height="24" as="geometry" />
        </mxCell>
        <mxCell id="LWDec0ok-VuoAz_Tq3SS-36" value="&lt;font style=&quot;font-size: 16px;&quot;&gt;可审&lt;br&gt;&lt;br&gt;&lt;br&gt;&lt;br&gt;&lt;/font&gt;" style="rounded=0;whiteSpace=wrap;html=1;" vertex="1" parent="1">
          <mxGeometry x="2525" y="243.5" width="150" height="90" as="geometry" />
        </mxCell>
        <mxCell id="LWDec0ok-VuoAz_Tq3SS-37" value="&lt;font style=&quot;&quot;&gt;&lt;font style=&quot;font-size: 12px;&quot;&gt;风险识别&lt;/font&gt;&lt;br&gt;&lt;/font&gt;" style="rounded=0;whiteSpace=wrap;html=1;" vertex="1" parent="1">
          <mxGeometry x="2532" y="273.5" width="63" height="24" as="geometry" />
        </mxCell>
        <mxCell id="LWDec0ok-VuoAz_Tq3SS-38" value="&lt;font style=&quot;&quot;&gt;&lt;font style=&quot;font-size: 12px;&quot;&gt;访问控制&lt;/font&gt;&lt;br&gt;&lt;/font&gt;" style="rounded=0;whiteSpace=wrap;html=1;" vertex="1" parent="1">
          <mxGeometry x="2532" y="303.5" width="63" height="24" as="geometry" />
        </mxCell>
        <mxCell id="LWDec0ok-VuoAz_Tq3SS-39" value="&lt;font style=&quot;&quot;&gt;&lt;font style=&quot;font-size: 12px;&quot;&gt;流量识别&lt;/font&gt;&lt;br&gt;&lt;/font&gt;" style="rounded=0;whiteSpace=wrap;html=1;" vertex="1" parent="1">
          <mxGeometry x="2605" y="273.5" width="63" height="24" as="geometry" />
        </mxCell>
        <mxCell id="LWDec0ok-VuoAz_Tq3SS-40" value="&lt;font style=&quot;&quot;&gt;&lt;font style=&quot;font-size: 12px;&quot;&gt;异常审计&lt;/font&gt;&lt;br&gt;&lt;/font&gt;" style="rounded=0;whiteSpace=wrap;html=1;" vertex="1" parent="1">
          <mxGeometry x="2605" y="303.5" width="63" height="24" as="geometry" />
        </mxCell>
        <mxCell id="LWDec0ok-VuoAz_Tq3SS-43" value="&lt;font style=&quot;&quot;&gt;法律法规&lt;br&gt;&lt;/font&gt;" style="rounded=0;whiteSpace=wrap;html=1;" vertex="1" parent="1">
          <mxGeometry x="1820" y="-82" width="63" height="24" as="geometry" />
        </mxCell>
        <mxCell id="LWDec0ok-VuoAz_Tq3SS-44" value="&lt;font style=&quot;&quot;&gt;标准规范&lt;br&gt;&lt;/font&gt;" style="rounded=0;whiteSpace=wrap;html=1;" vertex="1" parent="1">
          <mxGeometry x="1820" y="-51" width="63" height="24" as="geometry" />
        </mxCell>
        <mxCell id="LWDec0ok-VuoAz_Tq3SS-45" value="&lt;font style=&quot;&quot;&gt;监管要求&lt;br&gt;&lt;/font&gt;" style="rounded=0;whiteSpace=wrap;html=1;" vertex="1" parent="1">
          <mxGeometry x="1820" y="-19" width="63" height="24" as="geometry" />
        </mxCell>
        <mxCell id="LWDec0ok-VuoAz_Tq3SS-46" value="&lt;font style=&quot;&quot;&gt;合规评估&lt;br&gt;&lt;/font&gt;" style="rounded=0;whiteSpace=wrap;html=1;" vertex="1" parent="1">
          <mxGeometry x="1820" y="12" width="63" height="24" as="geometry" />
        </mxCell>
        <mxCell id="LWDec0ok-VuoAz_Tq3SS-48" value="&lt;font style=&quot;&quot;&gt;外审检查&lt;br&gt;&lt;/font&gt;" style="rounded=0;whiteSpace=wrap;html=1;" vertex="1" parent="1">
          <mxGeometry x="1820" y="43" width="63" height="24" as="geometry" />
        </mxCell>
        <mxCell id="LWDec0ok-VuoAz_Tq3SS-49" value="&lt;font style=&quot;&quot;&gt;组织结构&lt;br&gt;&lt;/font&gt;" style="rounded=0;whiteSpace=wrap;html=1;" vertex="1" parent="1">
          <mxGeometry x="2930" y="70" width="63" height="24" as="geometry" />
        </mxCell>
        <mxCell id="LWDec0ok-VuoAz_Tq3SS-50" value="&lt;font style=&quot;&quot;&gt;制度体系&lt;br&gt;&lt;/font&gt;" style="rounded=0;whiteSpace=wrap;html=1;" vertex="1" parent="1">
          <mxGeometry x="2930" y="117" width="63" height="24" as="geometry" />
        </mxCell>
        <mxCell id="LWDec0ok-VuoAz_Tq3SS-51" value="&lt;font style=&quot;&quot;&gt;流程建设&lt;br&gt;&lt;/font&gt;" style="rounded=0;whiteSpace=wrap;html=1;" vertex="1" parent="1">
          <mxGeometry x="2930" y="164" width="63" height="24" as="geometry" />
        </mxCell>
        <mxCell id="LWDec0ok-VuoAz_Tq3SS-52" value="&lt;font style=&quot;&quot;&gt;第三方管理&lt;br&gt;&lt;/font&gt;" style="rounded=0;whiteSpace=wrap;html=1;" vertex="1" parent="1">
          <mxGeometry x="2930" y="212" width="63" height="24" as="geometry" />
        </mxCell>
        <mxCell id="LWDec0ok-VuoAz_Tq3SS-53" value="&lt;font style=&quot;&quot;&gt;风险评估&lt;br&gt;&lt;/font&gt;" style="rounded=0;whiteSpace=wrap;html=1;" vertex="1" parent="1">
          <mxGeometry x="2930" y="259" width="63" height="24" as="geometry" />
        </mxCell>
        <mxCell id="LWDec0ok-VuoAz_Tq3SS-54" value="&lt;font style=&quot;&quot;&gt;安全运维&lt;br&gt;&lt;/font&gt;" style="rounded=0;whiteSpace=wrap;html=1;" vertex="1" parent="1">
          <mxGeometry x="2793.5" y="70" width="63" height="24" as="geometry" />
        </mxCell>
        <mxCell id="LWDec0ok-VuoAz_Tq3SS-55" value="&lt;font style=&quot;&quot;&gt;备份恢复&lt;br&gt;&lt;/font&gt;" style="rounded=0;whiteSpace=wrap;html=1;" vertex="1" parent="1">
          <mxGeometry x="2793.5" y="104" width="63" height="24" as="geometry" />
        </mxCell>
        <mxCell id="LWDec0ok-VuoAz_Tq3SS-56" value="&lt;font style=&quot;&quot;&gt;应急演练&lt;br&gt;&lt;/font&gt;" style="rounded=0;whiteSpace=wrap;html=1;" vertex="1" parent="1">
          <mxGeometry x="2793.5" y="137" width="63" height="24" as="geometry" />
        </mxCell>
        <mxCell id="LWDec0ok-VuoAz_Tq3SS-57" value="&lt;font style=&quot;&quot;&gt;应急处置&lt;br&gt;&lt;/font&gt;" style="rounded=0;whiteSpace=wrap;html=1;" vertex="1" parent="1">
          <mxGeometry x="2793.5" y="171" width="63" height="24" as="geometry" />
        </mxCell>
        <mxCell id="LWDec0ok-VuoAz_Tq3SS-58" value="&lt;font style=&quot;font-size: 16px;&quot;&gt;决策层：&lt;br&gt;&lt;/font&gt;" style="rounded=0;whiteSpace=wrap;html=1;" vertex="1" parent="1">
          <mxGeometry x="1960" y="920" width="450" height="47" as="geometry" />
        </mxCell>
        <mxCell id="LWDec0ok-VuoAz_Tq3SS-59" value="&lt;font style=&quot;font-size: 16px;&quot;&gt;管理层&lt;br&gt;&lt;/font&gt;" style="rounded=0;whiteSpace=wrap;html=1;" vertex="1" parent="1">
          <mxGeometry x="1960" y="991.5" width="290" height="47" as="geometry" />
        </mxCell>
        <mxCell id="LWDec0ok-VuoAz_Tq3SS-60" value="&lt;font style=&quot;font-size: 16px;&quot;&gt;执行层&lt;br&gt;&lt;/font&gt;" style="rounded=0;whiteSpace=wrap;html=1;" vertex="1" parent="1">
          <mxGeometry x="1960" y="1060" width="290" height="47" as="geometry" />
        </mxCell>
        <mxCell id="LWDec0ok-VuoAz_Tq3SS-61" value="&lt;font style=&quot;font-size: 16px;&quot;&gt;员工、合作伙伴（第三方）&lt;br&gt;&lt;/font&gt;" style="rounded=0;whiteSpace=wrap;html=1;" vertex="1" parent="1">
          <mxGeometry x="1960" y="1130" width="290" height="47" as="geometry" />
        </mxCell>
        <mxCell id="LWDec0ok-VuoAz_Tq3SS-62" value="&lt;font style=&quot;font-size: 16px;&quot;&gt;监督层&lt;br&gt;&lt;/font&gt;" style="rounded=0;whiteSpace=wrap;html=1;" vertex="1" parent="1">
          <mxGeometry x="2310" y="990" width="100" height="190" as="geometry" />
        </mxCell>
        <mxCell id="LWDec0ok-VuoAz_Tq3SS-63" value="&lt;font style=&quot;&quot;&gt;成熟度评估&lt;br&gt;&lt;/font&gt;" style="rounded=0;whiteSpace=wrap;html=1;" vertex="1" parent="1">
          <mxGeometry x="2930" y="306" width="63" height="24" as="geometry" />
        </mxCell>
        <mxCell id="LWDec0ok-VuoAz_Tq3SS-64" value="&lt;font style=&quot;&quot;&gt;溯源分析&lt;br&gt;&lt;/font&gt;" style="rounded=0;whiteSpace=wrap;html=1;" vertex="1" parent="1">
          <mxGeometry x="2793.5" y="205" width="63" height="24" as="geometry" />
        </mxCell>
        <mxCell id="LWDec0ok-VuoAz_Tq3SS-65" value="&lt;font style=&quot;&quot;&gt;风险感知&lt;br&gt;&lt;/font&gt;" style="rounded=0;whiteSpace=wrap;html=1;" vertex="1" parent="1">
          <mxGeometry x="2793.5" y="239" width="63" height="24" as="geometry" />
        </mxCell>
        <mxCell id="LWDec0ok-VuoAz_Tq3SS-66" value="&lt;font style=&quot;&quot;&gt;风险预警&lt;br&gt;&lt;/font&gt;" style="rounded=0;whiteSpace=wrap;html=1;" vertex="1" parent="1">
          <mxGeometry x="2793.5" y="272" width="63" height="24" as="geometry" />
        </mxCell>
        <mxCell id="LWDec0ok-VuoAz_Tq3SS-67" value="&lt;font style=&quot;&quot;&gt;安全画像&lt;br&gt;&lt;/font&gt;" style="rounded=0;whiteSpace=wrap;html=1;" vertex="1" parent="1">
          <mxGeometry x="2793.5" y="306" width="63" height="24" as="geometry" />
        </mxCell>
        <mxCell id="LWDec0ok-VuoAz_Tq3SS-68" value="&lt;font style=&quot;&quot;&gt;业务特征&lt;br&gt;&lt;/font&gt;" style="rounded=0;whiteSpace=wrap;html=1;" vertex="1" parent="1">
          <mxGeometry x="1820" y="122" width="63" height="24" as="geometry" />
        </mxCell>
        <mxCell id="LWDec0ok-VuoAz_Tq3SS-69" value="&lt;font style=&quot;&quot;&gt;业务关系&lt;br&gt;&lt;/font&gt;" style="rounded=0;whiteSpace=wrap;html=1;" vertex="1" parent="1">
          <mxGeometry x="1820" y="160" width="63" height="24" as="geometry" />
        </mxCell>
        <mxCell id="LWDec0ok-VuoAz_Tq3SS-70" value="&lt;font style=&quot;&quot;&gt;数据流向&lt;br&gt;&lt;/font&gt;" style="rounded=0;whiteSpace=wrap;html=1;" vertex="1" parent="1">
          <mxGeometry x="1820" y="197" width="63" height="24" as="geometry" />
        </mxCell>
        <mxCell id="LWDec0ok-VuoAz_Tq3SS-71" value="&lt;font style=&quot;&quot;&gt;安全偏好&lt;br&gt;&lt;/font&gt;" style="rounded=0;whiteSpace=wrap;html=1;" vertex="1" parent="1">
          <mxGeometry x="1820" y="235" width="63" height="24" as="geometry" />
        </mxCell>
        <mxCell id="LWDec0ok-VuoAz_Tq3SS-73" value="&lt;font style=&quot;font-size: 16px;&quot;&gt;终端安全&lt;br&gt;&lt;br&gt;&lt;br&gt;&lt;br&gt;&lt;br&gt;&lt;br&gt;&lt;/font&gt;" style="rounded=0;whiteSpace=wrap;html=1;" vertex="1" parent="1">
          <mxGeometry x="2049" y="555" width="150" height="120" as="geometry" />
        </mxCell>
        <mxCell id="LWDec0ok-VuoAz_Tq3SS-74" value="&lt;font style=&quot;&quot;&gt;&lt;font style=&quot;font-size: 12px;&quot;&gt;域控管理&lt;/font&gt;&lt;br&gt;&lt;/font&gt;" style="rounded=0;whiteSpace=wrap;html=1;" vertex="1" parent="1">
          <mxGeometry x="2056" y="582" width="63" height="24" as="geometry" />
        </mxCell>
        <mxCell id="LWDec0ok-VuoAz_Tq3SS-75" value="&lt;font style=&quot;&quot;&gt;&lt;font style=&quot;font-size: 12px;&quot;&gt;终端水印&lt;/font&gt;&lt;br&gt;&lt;/font&gt;" style="rounded=0;whiteSpace=wrap;html=1;" vertex="1" parent="1">
          <mxGeometry x="2056" y="612" width="63" height="24" as="geometry" />
        </mxCell>
        <mxCell id="LWDec0ok-VuoAz_Tq3SS-76" value="&lt;font style=&quot;&quot;&gt;&lt;font style=&quot;font-size: 12px;&quot;&gt;终端准入&lt;/font&gt;&lt;br&gt;&lt;/font&gt;" style="rounded=0;whiteSpace=wrap;html=1;" vertex="1" parent="1">
          <mxGeometry x="2129" y="582" width="63" height="24" as="geometry" />
        </mxCell>
        <mxCell id="LWDec0ok-VuoAz_Tq3SS-77" value="&lt;font style=&quot;&quot;&gt;&lt;font style=&quot;font-size: 12px;&quot;&gt;云桌面&lt;/font&gt;&lt;br&gt;&lt;/font&gt;" style="rounded=0;whiteSpace=wrap;html=1;" vertex="1" parent="1">
          <mxGeometry x="2129" y="612" width="63" height="24" as="geometry" />
        </mxCell>
        <mxCell id="LWDec0ok-VuoAz_Tq3SS-88" value="&lt;font style=&quot;&quot;&gt;&lt;font style=&quot;font-size: 12px;&quot;&gt;终端DLP&lt;/font&gt;&lt;br&gt;&lt;/font&gt;" style="rounded=0;whiteSpace=wrap;html=1;" vertex="1" parent="1">
          <mxGeometry x="2056" y="642" width="63" height="24" as="geometry" />
        </mxCell>
        <mxCell id="LWDec0ok-VuoAz_Tq3SS-89" value="&lt;font style=&quot;&quot;&gt;&lt;font style=&quot;font-size: 12px;&quot;&gt;IP限制&lt;/font&gt;&lt;br&gt;&lt;/font&gt;" style="rounded=0;whiteSpace=wrap;html=1;" vertex="1" parent="1">
          <mxGeometry x="2129" y="642" width="63" height="24" as="geometry" />
        </mxCell>
        <mxCell id="LWDec0ok-VuoAz_Tq3SS-90" value="&lt;font style=&quot;font-size: 16px;&quot;&gt;网络安全&lt;br&gt;&lt;br&gt;&lt;br&gt;&lt;br&gt;&lt;br&gt;&lt;br&gt;&lt;/font&gt;" style="rounded=0;whiteSpace=wrap;html=1;" vertex="1" parent="1">
          <mxGeometry x="2209" y="555" width="150" height="120" as="geometry" />
        </mxCell>
        <mxCell id="LWDec0ok-VuoAz_Tq3SS-91" value="&lt;font style=&quot;&quot;&gt;网络隔离&lt;br&gt;&lt;/font&gt;" style="rounded=0;whiteSpace=wrap;html=1;" vertex="1" parent="1">
          <mxGeometry x="2216" y="582" width="63" height="24" as="geometry" />
        </mxCell>
        <mxCell id="LWDec0ok-VuoAz_Tq3SS-92" value="&lt;font style=&quot;&quot;&gt;传输安全&lt;br&gt;&lt;/font&gt;" style="rounded=0;whiteSpace=wrap;html=1;" vertex="1" parent="1">
          <mxGeometry x="2216" y="612" width="63" height="24" as="geometry" />
        </mxCell>
        <mxCell id="LWDec0ok-VuoAz_Tq3SS-93" value="&lt;font style=&quot;&quot;&gt;访问控制&lt;br&gt;&lt;/font&gt;" style="rounded=0;whiteSpace=wrap;html=1;" vertex="1" parent="1">
          <mxGeometry x="2289" y="582" width="63" height="24" as="geometry" />
        </mxCell>
        <mxCell id="LWDec0ok-VuoAz_Tq3SS-94" value="&lt;font style=&quot;&quot;&gt;邮件DLP&lt;br&gt;&lt;/font&gt;" style="rounded=0;whiteSpace=wrap;html=1;" vertex="1" parent="1">
          <mxGeometry x="2289" y="612" width="63" height="24" as="geometry" />
        </mxCell>
        <mxCell id="LWDec0ok-VuoAz_Tq3SS-95" value="&lt;font style=&quot;&quot;&gt;&lt;font style=&quot;font-size: 12px;&quot;&gt;WAF防护&lt;/font&gt;&lt;br&gt;&lt;/font&gt;" style="rounded=0;whiteSpace=wrap;html=1;" vertex="1" parent="1">
          <mxGeometry x="2216" y="642" width="63" height="24" as="geometry" />
        </mxCell>
        <mxCell id="LWDec0ok-VuoAz_Tq3SS-96" value="&lt;font style=&quot;&quot;&gt;&lt;font style=&quot;font-size: 12px;&quot;&gt;防DDOS&lt;/font&gt;&lt;br&gt;&lt;/font&gt;" style="rounded=0;whiteSpace=wrap;html=1;" vertex="1" parent="1">
          <mxGeometry x="2289" y="642" width="63" height="24" as="geometry" />
        </mxCell>
        <mxCell id="LWDec0ok-VuoAz_Tq3SS-97" value="&lt;font style=&quot;font-size: 16px;&quot;&gt;主机安全&lt;br&gt;&lt;br&gt;&lt;br&gt;&lt;br&gt;&lt;br&gt;&lt;br&gt;&lt;/font&gt;" style="rounded=0;whiteSpace=wrap;html=1;" vertex="1" parent="1">
          <mxGeometry x="2369" y="555" width="150" height="120" as="geometry" />
        </mxCell>
        <mxCell id="LWDec0ok-VuoAz_Tq3SS-98" value="&lt;font style=&quot;&quot;&gt;账号管理&lt;br&gt;&lt;/font&gt;" style="rounded=0;whiteSpace=wrap;html=1;" vertex="1" parent="1">
          <mxGeometry x="2376" y="582" width="63" height="24" as="geometry" />
        </mxCell>
        <mxCell id="LWDec0ok-VuoAz_Tq3SS-99" value="&lt;font style=&quot;&quot;&gt;身份鉴别&lt;br&gt;&lt;/font&gt;" style="rounded=0;whiteSpace=wrap;html=1;" vertex="1" parent="1">
          <mxGeometry x="2376" y="612" width="63" height="24" as="geometry" />
        </mxCell>
        <mxCell id="LWDec0ok-VuoAz_Tq3SS-100" value="&lt;font style=&quot;&quot;&gt;访问控制&lt;br&gt;&lt;/font&gt;" style="rounded=0;whiteSpace=wrap;html=1;" vertex="1" parent="1">
          <mxGeometry x="2449" y="582" width="63" height="24" as="geometry" />
        </mxCell>
        <mxCell id="LWDec0ok-VuoAz_Tq3SS-101" value="&lt;font style=&quot;&quot;&gt;安全补丁&lt;br&gt;&lt;/font&gt;" style="rounded=0;whiteSpace=wrap;html=1;" vertex="1" parent="1">
          <mxGeometry x="2449" y="612" width="63" height="24" as="geometry" />
        </mxCell>
        <mxCell id="LWDec0ok-VuoAz_Tq3SS-102" value="&lt;font style=&quot;&quot;&gt;&lt;font style=&quot;font-size: 12px;&quot;&gt;漏洞扫描&lt;/font&gt;&lt;br&gt;&lt;/font&gt;" style="rounded=0;whiteSpace=wrap;html=1;" vertex="1" parent="1">
          <mxGeometry x="2376" y="642" width="63" height="24" as="geometry" />
        </mxCell>
        <mxCell id="LWDec0ok-VuoAz_Tq3SS-103" value="&lt;font style=&quot;&quot;&gt;&lt;font style=&quot;font-size: 12px;&quot;&gt;运维管控&lt;/font&gt;&lt;br&gt;&lt;/font&gt;" style="rounded=0;whiteSpace=wrap;html=1;" vertex="1" parent="1">
          <mxGeometry x="2449" y="642" width="63" height="24" as="geometry" />
        </mxCell>
        <mxCell id="LWDec0ok-VuoAz_Tq3SS-104" value="&lt;font style=&quot;font-size: 16px;&quot;&gt;云安全&lt;br&gt;&lt;br&gt;&lt;br&gt;&lt;br&gt;&lt;br&gt;&lt;br&gt;&lt;/font&gt;" style="rounded=0;whiteSpace=wrap;html=1;" vertex="1" parent="1">
          <mxGeometry x="2526" y="555" width="150" height="120" as="geometry" />
        </mxCell>
        <mxCell id="LWDec0ok-VuoAz_Tq3SS-105" value="&lt;font style=&quot;&quot;&gt;身份认证&lt;br&gt;&lt;/font&gt;" style="rounded=0;whiteSpace=wrap;html=1;" vertex="1" parent="1">
          <mxGeometry x="2533" y="582" width="63" height="24" as="geometry" />
        </mxCell>
        <mxCell id="LWDec0ok-VuoAz_Tq3SS-106" value="&lt;font style=&quot;&quot;&gt;流量监测&lt;br&gt;&lt;/font&gt;" style="rounded=0;whiteSpace=wrap;html=1;" vertex="1" parent="1">
          <mxGeometry x="2533" y="612" width="63" height="24" as="geometry" />
        </mxCell>
        <mxCell id="LWDec0ok-VuoAz_Tq3SS-107" value="&lt;font style=&quot;&quot;&gt;逃逸防护&lt;br&gt;&lt;/font&gt;" style="rounded=0;whiteSpace=wrap;html=1;" vertex="1" parent="1">
          <mxGeometry x="2606" y="582" width="63" height="24" as="geometry" />
        </mxCell>
        <mxCell id="LWDec0ok-VuoAz_Tq3SS-108" value="&lt;font style=&quot;&quot;&gt;镜像安全&lt;br&gt;&lt;/font&gt;" style="rounded=0;whiteSpace=wrap;html=1;" vertex="1" parent="1">
          <mxGeometry x="2606" y="612" width="63" height="24" as="geometry" />
        </mxCell>
        <mxCell id="LWDec0ok-VuoAz_Tq3SS-109" value="&lt;font style=&quot;&quot;&gt;&lt;font style=&quot;font-size: 12px;&quot;&gt;容器安全&lt;/font&gt;&lt;br&gt;&lt;/font&gt;" style="rounded=0;whiteSpace=wrap;html=1;" vertex="1" parent="1">
          <mxGeometry x="2533" y="642" width="63" height="24" as="geometry" />
        </mxCell>
        <mxCell id="LWDec0ok-VuoAz_Tq3SS-110" value="&lt;font style=&quot;&quot;&gt;&lt;font style=&quot;font-size: 12px;&quot;&gt;平台安全&lt;/font&gt;&lt;br&gt;&lt;/font&gt;" style="rounded=0;whiteSpace=wrap;html=1;" vertex="1" parent="1">
          <mxGeometry x="2606" y="642" width="63" height="24" as="geometry" />
        </mxCell>
        <mxCell id="LWDec0ok-VuoAz_Tq3SS-117" value="培训" style="html=1;shadow=0;dashed=0;align=center;verticalAlign=middle;shape=mxgraph.arrows2.arrow;dy=0;dx=10;notch=10;fontSize=14;" vertex="1" parent="1">
          <mxGeometry x="2067" y="389" width="87" height="30" as="geometry" />
        </mxCell>
        <mxCell id="LWDec0ok-VuoAz_Tq3SS-118" value="需求" style="html=1;shadow=0;dashed=0;align=center;verticalAlign=middle;shape=mxgraph.arrows2.arrow;dy=0;dx=10;notch=10;fontSize=14;" vertex="1" parent="1">
          <mxGeometry x="2156" y="389" width="87" height="30" as="geometry" />
        </mxCell>
        <mxCell id="LWDec0ok-VuoAz_Tq3SS-119" value="设计" style="html=1;shadow=0;dashed=0;align=center;verticalAlign=middle;shape=mxgraph.arrows2.arrow;dy=0;dx=10;notch=10;fontSize=14;" vertex="1" parent="1">
          <mxGeometry x="2243" y="389" width="87" height="30" as="geometry" />
        </mxCell>
        <mxCell id="LWDec0ok-VuoAz_Tq3SS-120" value="实现" style="html=1;shadow=0;dashed=0;align=center;verticalAlign=middle;shape=mxgraph.arrows2.arrow;dy=0;dx=10;notch=10;fontSize=14;" vertex="1" parent="1">
          <mxGeometry x="2331" y="389" width="87" height="30" as="geometry" />
        </mxCell>
        <mxCell id="LWDec0ok-VuoAz_Tq3SS-121" value="验证" style="html=1;shadow=0;dashed=0;align=center;verticalAlign=middle;shape=mxgraph.arrows2.arrow;dy=0;dx=10;notch=10;fontSize=14;" vertex="1" parent="1">
          <mxGeometry x="2418" y="389" width="87" height="30" as="geometry" />
        </mxCell>
        <mxCell id="LWDec0ok-VuoAz_Tq3SS-122" value="发布" style="html=1;shadow=0;dashed=0;align=center;verticalAlign=middle;shape=mxgraph.arrows2.arrow;dy=0;dx=10;notch=10;fontSize=14;" vertex="1" parent="1">
          <mxGeometry x="2506" y="389" width="87" height="30" as="geometry" />
        </mxCell>
        <mxCell id="LWDec0ok-VuoAz_Tq3SS-123" value="响应" style="html=1;shadow=0;dashed=0;align=center;verticalAlign=middle;shape=mxgraph.arrows2.arrow;dy=0;dx=10;notch=10;fontSize=14;" vertex="1" parent="1">
          <mxGeometry x="2593" y="389" width="87" height="30" as="geometry" />
        </mxCell>
        <mxCell id="LWDec0ok-VuoAz_Tq3SS-125" value="安全需求&lt;br&gt;质量门/bug栏&lt;br&gt;安全风险评估&lt;br&gt;隐私风险评估" style="rounded=0;whiteSpace=wrap;html=1;align=left;" vertex="1" parent="1">
          <mxGeometry x="2156" y="423" width="79" height="73" as="geometry" />
        </mxCell>
        <mxCell id="LWDec0ok-VuoAz_Tq3SS-126" value="&lt;span style=&quot;text-align: center;&quot;&gt;安全培训&lt;/span&gt;&lt;br style=&quot;text-align: center;&quot;&gt;&lt;span style=&quot;text-align: center;&quot;&gt;安全知识&lt;/span&gt;&lt;br style=&quot;text-align: center;&quot;&gt;&lt;span style=&quot;text-align: center;&quot;&gt;隐私教育&lt;/span&gt;" style="rounded=0;whiteSpace=wrap;html=1;align=left;" vertex="1" parent="1">
          <mxGeometry x="2071" y="423" width="79" height="73" as="geometry" />
        </mxCell>
        <mxCell id="LWDec0ok-VuoAz_Tq3SS-127" value="设计要求&lt;br&gt;减少攻击面&lt;br&gt;威胁建模" style="rounded=0;whiteSpace=wrap;html=1;align=left;" vertex="1" parent="1">
          <mxGeometry x="2243" y="423" width="79" height="73" as="geometry" />
        </mxCell>
        <mxCell id="LWDec0ok-VuoAz_Tq3SS-128" value="使用特定工具&lt;br&gt;禁不安全函数&lt;br&gt;静态分析" style="rounded=0;whiteSpace=wrap;html=1;align=left;" vertex="1" parent="1">
          <mxGeometry x="2331" y="423" width="79" height="73" as="geometry" />
        </mxCell>
        <mxCell id="LWDec0ok-VuoAz_Tq3SS-129" value="动态分析&lt;br&gt;模糊测试&lt;br&gt;攻击面分析" style="rounded=0;whiteSpace=wrap;html=1;align=left;" vertex="1" parent="1">
          <mxGeometry x="2418" y="423" width="79" height="73" as="geometry" />
        </mxCell>
        <mxCell id="LWDec0ok-VuoAz_Tq3SS-130" value="时间响应计划&lt;br&gt;最终安全分析发布和存档" style="rounded=0;whiteSpace=wrap;html=1;align=left;" vertex="1" parent="1">
          <mxGeometry x="2506" y="423" width="79" height="73" as="geometry" />
        </mxCell>
        <mxCell id="LWDec0ok-VuoAz_Tq3SS-131" value="发布安全响应" style="rounded=0;whiteSpace=wrap;html=1;align=left;" vertex="1" parent="1">
          <mxGeometry x="2593" y="423" width="79" height="73" as="geometry" />
        </mxCell>
        <mxCell id="LWDec0ok-VuoAz_Tq3SS-133" value="&lt;font style=&quot;font-size: 16px;&quot;&gt;数据分类分级&lt;br&gt;&lt;br&gt;&lt;br&gt;&lt;br&gt;&lt;br&gt;&lt;br&gt;&lt;br&gt;&lt;/font&gt;" style="rounded=0;whiteSpace=wrap;html=1;" vertex="1" parent="1">
          <mxGeometry x="2465" y="15" width="220" height="140" as="geometry" />
        </mxCell>
        <mxCell id="LWDec0ok-VuoAz_Tq3SS-134" value="&lt;font style=&quot;&quot;&gt;L1：外部公开&lt;br&gt;&lt;/font&gt;" style="rounded=0;whiteSpace=wrap;html=1;" vertex="1" parent="1">
          <mxGeometry x="2480.5" y="53" width="94.5" height="24" as="geometry" />
        </mxCell>
        <mxCell id="LWDec0ok-VuoAz_Tq3SS-139" value="&lt;font style=&quot;&quot;&gt;L2：内部公开&lt;br&gt;&lt;/font&gt;" style="rounded=0;whiteSpace=wrap;html=1;" vertex="1" parent="1">
          <mxGeometry x="2581" y="53" width="94.5" height="24" as="geometry" />
        </mxCell>
        <mxCell id="LWDec0ok-VuoAz_Tq3SS-140" value="&lt;font style=&quot;&quot;&gt;L3：秘密&amp;nbsp; &amp;nbsp; &amp;nbsp; &amp;nbsp;&lt;br&gt;&lt;/font&gt;" style="rounded=0;whiteSpace=wrap;html=1;" vertex="1" parent="1">
          <mxGeometry x="2480.5" y="87" width="94.5" height="24" as="geometry" />
        </mxCell>
        <mxCell id="LWDec0ok-VuoAz_Tq3SS-141" value="&lt;font style=&quot;&quot;&gt;L4：机密&amp;nbsp; &amp;nbsp; &amp;nbsp; &amp;nbsp;&lt;br&gt;&lt;/font&gt;" style="rounded=0;whiteSpace=wrap;html=1;" vertex="1" parent="1">
          <mxGeometry x="2581" y="87" width="94.5" height="24" as="geometry" />
        </mxCell>
        <mxCell id="LWDec0ok-VuoAz_Tq3SS-142" value="&lt;font style=&quot;&quot;&gt;L5：绝密&amp;nbsp; &amp;nbsp; &amp;nbsp; &amp;nbsp;&lt;br&gt;&lt;/font&gt;" style="rounded=0;whiteSpace=wrap;html=1;" vertex="1" parent="1">
          <mxGeometry x="2480.5" y="120" width="194.5" height="24" as="geometry" />
        </mxCell>
      </root>
    </mxGraphModel>
  </diagram>
</mxfile>
